<?xml version="1.0" encoding="utf-8"?>
<!-- Generator: Adobe Illustrator 26.5.0, SVG Export Plug-In . SVG Version: 6.00 Build 0)  -->
<svg version="1.1" id="Layer_1" xmlns="http://www.w3.org/2000/svg" xmlns:xlink="http://www.w3.org/1999/xlink" x="0px" y="0px"
	 viewBox="0 0 1280 948" style="enable-background:new 0 0 1280 948;" xml:space="preserve">
<g>
	<path d="M261.4,299.7c16.5-57.4,32.4-112.5,48.3-167.5c11.1-38.5,22.1-77,33.2-115.5c1.7-6.1,14-16.6,19.7-16.7
		c4.8-0.1,4.5,4.2,5.4,7c9.1,27.6,17.9,55.3,26.9,83c22,67.9,43.9,135.7,65.9,203.6c0.4,1.3,0.9,2.6,1.9,5.7
		c2.5-10.1,4.8-18.6,6.8-27.1c19.3-80.5,38.6-161.1,58.2-241.5c1.9-8,0.3-11.6-7.6-13.3c-5.9-1.3-11.5-3.7-17.2-5.7
		c-2.8-1-5.2-2.6-4.1-6c1-3.2,3.9-2.3,6.3-2c23.5,2.8,47.2,2.7,70.8,0c2.5-0.3,5.3-1.2,6.2,2c1,3.4-1.4,5-4.2,6
		c-6.2,2.1-12.4,4.6-18.8,6.2c-6.4,1.6-9.3,5.2-10.9,11.6c-18.4,74.8-36.9,149.6-55.6,224.4c-5.7,22.9-11.5,45.7-16.9,68.7
		c-1.5,6.4-4.3,8.9-11.2,8.9c-24.4-0.1-24.4,0.1-31.9-22.6c-27.3-82.6-53.1-165.6-77.2-249.2c-1-4-2.7-7.8-4.9-11.2
		c-1.7,6.1-3.5,12.2-5.1,18.3c-22.3,85.2-46.3,169.9-71.2,254.3c-2.4,8.1-6.1,10.6-14.4,10.4c-22.1-0.5-22.2-0.2-28.1-21.3
		c-26.1-93.2-52.1-186.5-78.1-279.7c-2-7.3-5.5-11.3-12.7-13c-5.6-1.3-11-3.6-16.4-5.4c-3-1-6.2-2.1-5.3-6.1
		c0.9-3.8,4.1-2.7,6.8-2.4c27.6,3,55.5,3,83.1-0.1c2.7-0.3,5.9-1.1,6.6,2.7c0.6,3.5-2.1,4.7-4.8,5.6c-6.5,2.2-13,4.6-19.6,6.5
		c-5.5,1.6-6.4,4.3-4.9,9.7c21.6,77.7,43,155.4,64.4,233.2C254.1,273.4,257.5,285.5,261.4,299.7z"/>
	<path d="M1028.1,151.5c8.5-10.1,17-18.9,26.8-26.4c14.4-11.1,29.7-20.2,48.9-18c15.5,1.8,24.6,11.3,28.7,25.8
		c2.2,8.2,3.3,16.7,3.2,25.2c0,48.3,0.2,96.6-0.2,144.8c-0.1,8.1,1.9,13,10.2,14.9c4,0.9,7.7,2.9,11.5,4.5c2.6,1.1,5.5,2.4,4.5,5.9
		c-1.1,4.1-4.9,3-7.6,2.6c-16.7-2.5-33.5-1.5-50.2-1.3c-5.5,0.1-10.9,1.1-16.4,1.4c-2.5,0.1-5.9,1-6.6-2.9c-0.6-3.5,2.1-4.8,4.7-5.8
		c5.1-2.1,10.2-4.1,15.4-6c4.1-1.5,6.2-3.8,6.1-8.5c-0.1-46.9-0.1-93.8-0.2-140.7c-0.1-4.7-0.7-9.3-1.8-13.8
		c-3.2-14.7-14.7-21.2-31.1-17.1c-19.8,4.9-32.9,19.1-45.5,33.8c-2.1,2.4-1.7,5.7-1.7,8.7c0,42.5,0.1,85-0.1,127.6
		c0,5.9,2,9.2,7.6,10.8c4.4,1.4,8.8,3.1,13.1,5.1c2.7,1.2,6.3,2.1,5.5,6.1c-0.9,4.3-4.8,3.2-7.5,2.8c-17.5-2.5-35.1-1.5-52.7-1.3
		c-5.2,0.1-10.4,1-15.6,1.4c-2.2,0.1-4.6,0.2-5.1-2.8c-0.5-2.6,0.8-4.3,3-5.2c5.6-2.3,11.2-4.7,16.9-6.7c4.5-1.6,6.3-4.3,6.3-9.2
		c-0.1-46.6-0.1-93.3-0.2-139.9c-0.1-4.9-0.8-9.8-2-14.6c-3.6-14.6-15.1-20.6-31.5-16.4c-19.4,5-32.3,19-44.8,33.5
		c-2.1,2.4-1.8,5.7-1.8,8.7c0,42.5,0.1,85-0.1,127.6c0,5.9,2.1,9.2,7.6,11c4.4,1.4,8.7,3.3,13,5.1c2.7,1.2,6.3,2.1,5.5,6.1
		c-0.8,4.3-4.7,3.2-7.4,2.9c-17-2.5-34-1.6-51.1-1.3c-5.5,0.1-10.9,1.1-16.4,1.4c-2.3,0.1-5.3,0.7-6-2.8c-0.7-3,1.2-4.6,3.7-5.6
		c5.3-2.2,10.7-4.4,16.1-6.3c4.5-1.6,6.4-4.3,6.4-9.2c-0.1-56.5-0.1-113,0-169.5c0-4.8-1.6-7.6-6.2-9.2c-5.5-1.8-10.8-4.2-16.1-6.4
		c-2.4-1-4.5-2.4-4-5.5c0.7-3.7,3.5-2.6,5.9-2.3c13.3,2,26.9,1.9,40.2-0.4c7.1-1.2,8.6,3.6,8.7,8.9c0.2,9.2,0.1,18.4,0.1,30.2
		c9.7-11,18-19.6,27.3-27.2c9.3-7.5,19.3-13.6,30.8-17c25.7-7.4,45,4.8,49.3,31.1C1025.8,143.4,1025.6,147,1028.1,151.5z"/>
	<path d="M659.9,301.3c-9.3,9.9-18,16.9-27.7,22.5c-16.5,9.5-33.8,16-53.3,12.6c-16.8-3-27.2-15.7-28.2-32.7
		c-1.2-20,5.9-37.1,18-52.4c20.4-25.8,47.9-41.4,77.9-53.3c15.3-6,12.8-3.1,13.2-19.1c0.4-13.8-0.4-27.4-5.1-40.5
		c-6.8-18.9-22.1-25.2-40.2-16.1c-14.8,7.5-24.3,20.3-32.5,34.1c-4,6.8-7.3,14.1-10.9,21.2c-1.3,2.6-2.8,5.1-6.2,3.9
		c-3.5-1.2-1.9-4-1.6-6.3c1.9-11.4,1.8-23-0.3-34.3c-0.7-3.7,0-6.3,3.2-8.5c18.8-12.7,38.3-24.1,61.6-25.6
		c18.7-1.2,36.4,1.7,49.2,17.4c9,11,11.2,24.3,11.3,37.9c0.2,47.2,0.2,94.3-0.1,141.5c-0.1,7.7,2.2,12,9.6,14.8
		c4.6,1.8,13.1,2.4,11.2,9.5c-1.7,6.5-8.5,1.1-12.9,1.3c-8.8,0.4-17.6-0.8-26.3,1.2c-7.1,1.6-9.8-1.9-10-8.2
		C659.7,316.1,659.9,309.9,659.9,301.3z M659.8,245.8c0-11.5-0.1-23,0.1-34.5c0.1-5.3-1.4-7-6.7-4.7c-23.1,9.9-43.5,23.5-58.3,44.2
		c-8.4,11.7-13.2,24.6-12.1,39.2c1,12.5,9.9,22.1,22.2,23.9c18.7,2.7,43-9.2,53-25.6c1.7-2.8,1.9-5.7,1.9-8.7
		C659.8,268.3,659.8,257,659.8,245.8L659.8,245.8z"/>
	<path d="M772.7,148.3c8.7-12.2,16.4-22.5,26.8-30.2c10.8-8.1,22.6-13.7,36.8-10.2c7.8,1.8,14.8,6.4,19.6,12.8
		c5.9,7.7,7.7,14.8,2.1,24c-7.8,12.8-10.9,27.4-14.6,41.8c-1,4-0.6,11-7.6,9.1c-6.2-1.7-2.4-7.5-2.1-11.3
		c0.7-10.9,3.3-21.7,1.2-32.7c-3.9-20.5-19.6-27-35.7-13.7c-15.7,13-27.3,28.3-26.7,51.1c1.1,38.4,0.5,76.8,0.1,115.2
		c-0.1,7.2,2.1,11.3,9.2,13.2c4,1,7.7,2.9,11.5,4.5c2.7,1.2,6.4,2.1,5.5,6c-1,4.8-5.3,3.2-8.2,2.8c-15.1-2.2-30.2-1.6-45.3-1.3
		c-7.1,0.1-14.2,1.1-21.4,1.5c-2.3,0.1-5.3,0.7-6.1-2.7c-0.7-3,1.3-4.6,3.8-5.6c4.8-2,9.6-4.2,14.6-5.7c5.9-1.8,7.9-5.4,7.9-11.6
		c-0.2-42-0.1-84-0.1-125.9c0-13.4-0.3-26.9,0.1-40.3c0.2-6.1-1.7-9.7-7.8-11.5c-5.3-1.5-10.3-3.9-15.3-6c-2.2-0.9-3.7-2.5-3.2-5.1
		c0.6-3.1,2.9-2.7,5.2-2.4c13.9,2.2,28,2.1,41.8-0.2c6-1,7.7,3.4,7.8,8.1C772.9,130,772.7,138.2,772.7,148.3z"/>
	<path d="M550.5,542.3c14.1-15.3,26.8-29.4,43.8-38.5c11.1-6,22.7-10,35.5-7.6c18.3,3.5,29.1,17.9,29.4,40.1
		c0.4,24.1,0.1,48.3,0.1,72.4c0,28.5,0.1,57.1-0.1,85.6c-0.1,5.8,1.6,9.3,7.3,11c5,1.5,9.8,3.7,14.6,5.7c2.8,1.2,6.1,2.3,5,6.3
		c-1.1,3.6-4.5,2.8-7,2.4c-17.3-2.6-34.6-1.6-51.9-1.4c-5.5,0.1-10.9,1.1-16.4,1.4c-2.4,0.2-5.3,0.5-6.1-2.8c-0.7-3,1.4-4.5,3.8-5.5
		c5.8-2.4,11.7-4.9,17.6-7c4-1.4,5.6-3.9,5.5-8c-0.8-49.1,1.7-98.2-1.4-147.3c-1.4-21.4-14.5-30-35.2-23.6
		c-18.5,5.8-30.7,19.7-43,33.5c-2,2.2-1.7,5.1-1.7,7.9c0,42.8,0.1,85.6-0.1,128.4c0,5.3,1.8,8.1,6.8,9.7c5.2,1.7,10.3,3.9,15.4,6
		c2.5,1,5.6,2.1,4.9,5.6c-0.8,4.4-4.6,3.4-7.4,3c-17-2.5-34.1-1.9-51.1-1.3c-15.4,0.5-30.7,3.3-46,0.6
		c-37.2-6.5-55.2-28.1-55.3-66.1c-0.1-41.7,0-83.4,0-125.1c0-12,0-12-12.4-12c-2.8,0-5.5,0-8.3,0c-2.7-0.1-5.8,0.1-6.7-3.3
		c-0.9-3.3-0.8-6.9,2.3-9c26.4-17.3,38-43.9,46.2-72.7c0.7-2.4,1.2-5.2,4.5-4.7c3.4,0.5,3,3.5,3,5.8c0.1,20,0.3,40.1-0.1,60.1
		c-0.2,7.4,1.9,10.3,9.7,9.9c12.1-0.6,24.2-0.2,36.3-0.1c4.7,0,10.3-1.3,10.4,6.7c0.1,8.5-5.7,7.2-10.8,7.2
		c-12.4,0.1-24.8,0.2-37.1,0c-5.7-0.1-8.5,1.4-8.5,7.8c0.2,42.5-0.5,85.1,0.4,127.6c0.4,19,6.1,36.9,23.6,48.3
		c6.4,4.1,13.3,6.6,20.9,6.5c8.2-0.1,16.2,5.3,24.9-0.5c4.4-2.9,6.9-5.1,6.8-10.6c-0.2-23.9-0.1-47.7-0.1-71.6
		c0-73.5-0.1-147.1,0.2-220.6c0-8.3-2.5-12.7-10.4-14.8c-4.7-1.3-9.2-3.5-13.8-5.5c-2.2-0.9-3.6-2.7-3.1-5.2
		c0.6-3.1,3.3-2.6,5.3-2.2c13.8,2.3,28,2.3,41.8-0.1c4.9-0.8,7.1,2,7.4,6.6c0.2,2.7,0.1,5.5,0.1,8.2
		C550.5,439.8,550.5,490.1,550.5,542.3z"/>
	<path d="M134,720.1c-27.4,1.6-61.7-1.6-96-1.9c-5.5-0.2-11,0.3-16.4,1.3c-2.7,0.5-6.5,1.8-7.3-2.7c-0.7-3.7,2.5-4.5,5-5.4
		c6.5-2.3,13-4.6,19.6-6.5c4.9-1.4,7.1-3.9,7.1-9.3c-0.1-93-0.1-186,0-279c0-5.4-2.1-7.9-7.1-9.4c-6.6-1.9-13-4.3-19.6-6.5
		c-3-1-6.1-2.3-5.1-6.2c0.9-3.8,4.1-2.6,6.8-2.3c26.8,3,53.8,3,80.6,0c2.7-0.3,5.9-1.5,7.1,2c1.2,3.8-1.9,5.2-4.9,6.3
		c-6.5,2.2-13,4.5-19.6,6.5c-4.7,1.4-6.9,4.1-6.5,9c0.1,1.4,0,2.7,0,4.1c0,90.2,0,180.5,0,270.7c0,11.4,0,11.4,11.3,11.4
		c23.9,0,47.9,0,71.8,0c26.3,0,36.4-6.8,46.6-31c1.4-3.3,2.6-6.7,4.1-9.9c1-2.1,3.4-3.1,5.6-2.3c3.1,0.8,2.3,3.2,1.8,5.3
		c-4.5,16.7-8.8,33.4-6.8,51c0.6,5.4-3.8,4.4-6.8,4.4C183.9,720.2,162.4,720.1,134,720.1z"/>
	<path d="M777.5,596.6c-18.1,0-36.3,0.1-54.4,0c-4.3,0-7.8,0.4-7.5,6c1.7,33.4,8.3,65.5,30.1,92.1c17,20.8,39.8,22.3,60.7,4.9
		c8-6.7,15.7-14,21.4-22.7c3.6-5.6,7.4-5.4,12.4-3c3.3,1.6,4.1,3.7,1.9,6.4c-15.9,20-33,38.9-59.5,44.3c-29.5,6-53.1-5.7-71-28.3
		c-22.1-27.9-27.9-61-25.9-95.5c1.6-27.4,9.6-52.9,27-74.7c21.7-27.2,56.6-41,90.7-21.5c12.4,7.1,21.2,17.6,26.9,30.3
		c7.6,16.9,10.8,35,10.8,53.6c0,6-2.2,8.2-8.3,8.1C814.3,596.5,795.9,596.6,777.5,596.6z M762.3,582.7c12.9,0,25.9,0.1,38.8,0
		c3.1,0,7.4,0.8,7-4.5c-1.7-18.9-4.2-37.7-16.2-53.6c-15.1-19.9-41.7-20.9-57-1.3c-12.1,15.4-16,34-17.8,53.1
		c-0.5,5.4,2.9,6.3,7.3,6.3C737,582.6,749.6,582.7,762.3,582.7z"/>
	<path d="M317.2,596.6c-18.1,0-36.3,0-54.4,0c-4,0-8.2-0.3-8.1,5.5c0.9,35.9,8.4,69.7,33.6,97.1c12.7,13.9,29.1,16,45.8,7.4
		c13.6-7,23.7-17.8,32.3-30c3.8-5.5,7.5-5,12.6-2.6c3.6,1.7,3.7,3.7,1.6,6.4c-15.2,19.1-31.5,37.3-56.3,43.5
		c-29.9,7.6-54.1-3.8-73.2-26.3c-16-18.8-23.4-41.5-25.9-65.6c-3.9-37.6,1.6-73.3,25-104.6c21.4-28.7,55.1-39.1,85.2-26
		c17.1,7.4,28.2,20.6,35.2,37.4c6.4,15.4,8.2,31.7,9.5,48.2c0.6,7.5-2.5,10-10,9.8C352.3,596.3,334.7,596.6,317.2,596.6z M300,582.7
		c12.9,0,25.8-0.1,38.7,0.1c5.5,0.1,8.4-1.6,7.7-7.5c-1.9-17.2-4.5-34.1-14.9-48.9c-17-24.2-48.3-22.7-62.5,3.1
		c-8,14.4-11.3,30.1-13.8,46.1c-0.9,5.6,1.7,7.3,6.9,7.2C274.8,582.6,287.4,582.7,300,582.7z"/>
	<path d="M1080.9,596.6c-18.1,0-36.3,0.1-54.4,0c-4.4,0-7.6,0.7-7.6,6.1c0.4,31.7,7.5,61.7,26,87.7c18.5,26,43.7,27.9,67.6,6.6
		c7.3-6.3,13.7-13.5,19.2-21.4c4.2-6.3,9-3.2,12.8-0.7c5.1,3.3-0.1,6.3-1.9,8.6c-9.5,11.8-19.9,22.8-32.7,31.1
		c-31.8,20.5-72.3,12.6-95.5-17.9c-14.5-19.1-22.3-40.9-24.8-64.4c-4.1-38.6,1.8-74.9,26.4-106.5c22.4-28.8,57.3-37.9,88-22.3
		c14.6,7.4,24.3,19.6,30.6,34.4c6.6,15.5,8.7,32.2,9.8,48.9c0.5,7.3-1.9,10.3-9.8,10.1C1116.7,596.3,1098.8,596.6,1080.9,596.6z
		 M1064.2,582.7c13.2,0,26.3-0.1,39.5,0.1c5.3,0.1,7.5-2.1,7-7.4c-1.5-16.7-4.2-33.2-13.8-47.6c-17.4-26.2-49.4-24.6-64.3,2.9
		c-7.7,14.2-10.7,29.8-13.1,45.5c-0.9,5.5,2.3,6.5,6.8,6.5C1039,582.6,1051.6,582.7,1064.2,582.7z"/>
	<path d="M901.4,533.5c8-8,14.6-16.4,22.7-23.4c11.4-9.8,23.9-16.7,39.7-13.7c12.8,2.5,20.6,10.8,25.8,22.1c1.6,3,1.4,6.5-0.3,9.4
		c-9.1,15.6-14,32.7-17.9,50.2c-0.5,2.4-0.9,5.3-3.5,6.1c-5,1.4-7.2-0.5-6.3-5.9c1.5-10.3,2.9-20.6,2.6-31.1
		c-0.3-10.3-2.2-20.5-12.4-25.1c-10.5-4.8-20.3-0.1-27.7,7.4c-13.2,13.5-23.5,27.9-22.8,48.9c1.3,38.1,0.6,76.3,0.2,114.4
		c-0.1,7.6,2.3,11.8,9.6,13.7c4,1,7.7,2.9,11.5,4.5c2.8,1.2,6.2,2.3,5,6.3c-1,3.6-4.5,2.8-7,2.4c-17-2.5-34-1.6-51.1-1.4
		c-5.5,0.1-10.9,1.1-16.4,1.4c-2.6,0.2-5.9,1.1-6.9-2.7c-0.9-3.5,1.9-4.8,4.5-5.9c5.6-2.3,11.2-4.6,16.9-6.7c4-1.4,5.5-3.9,5.5-8
		c-0.1-57.1-0.1-114.1,0-171.2c0-4.3-1.9-6.5-5.7-7.9c-5.4-2-10.7-4.2-16.1-6.3c-2.9-1.1-6.1-2.4-5.1-6.3c1-4,4.4-2.2,6.9-1.9
		c12.6,1.9,25.2,2.3,37.7-0.2c7.7-1.5,10.3,2,10.6,8.5C901.6,518.7,901.4,526.1,901.4,533.5z"/>
	<path d="M1182.1,590.1c0-21.7-0.2-43.4,0.1-65c0.1-7.2-2.2-10.2-9.5-9.4c-3.6,0.2-7.2,0.3-10.7,0c-3-0.1-6.4,0.4-7.4-3.5
		c-0.8-3.4-0.6-6.8,2.5-8.9c26.3-17.3,38.1-43.8,46-72.7c0.7-2.5,1.4-5.1,4.7-4.5c3.3,0.6,2.8,3.7,2.8,6c0.1,20,0.4,40.1-0.1,60.1
		c-0.2,7.7,2.4,10,9.9,9.7c12.9-0.5,25.9,0,38.8-0.2c4.9,0,7.7,1.3,7.7,7c0,5.5-2.6,7.1-7.6,7.1c-13.5-0.1-27,0.2-40.4-0.1
		c-5.9-0.1-8.3,1.6-8.3,7.9c0.2,42-0.1,84,0.3,125.9c-0.1,11.9,3,23.6,8.9,33.9c8.8,15,21.7,22.9,39.3,22.5c4.9-0.1,7.7,1.5,7.7,7
		c0,5.4-2.3,7.4-7.5,7.1c-7.7-0.4-15.4,0.2-23-1.2c-35.7-6.7-53.9-28.1-54.2-64.6C1181.9,632.9,1182.1,611.5,1182.1,590.1z"/>
</g>
<g>
	<path d="M376.8,915.1l5.9-0.6c0.6,8.2,4.9,12.4,12.1,12.4c8.1,0,11.7-5.5,11.7-15.7v-30.1h-22.5v-5.5h28.5v36
		c0,13.3-6.5,20.9-17.8,20.9C384.5,932.5,377.5,926,376.8,915.1z"/>
	<path d="M456.4,913.5h-28.9c0.2,8.4,4.9,13.5,12.6,13.5c4.3,0.2,8.5-1.6,11.3-5l4.1,3.6c-4.5,4.6-9,6.7-15.4,6.7
		c-12.1,0-18.3-9-18.3-20.2s6-20.7,17.7-20.7c12.1,0,17.2,9.4,17.2,18.6C456.7,911.1,456.6,912.3,456.4,913.5z M451.1,909.1
		c0.1-0.3,0.1-0.6,0.1-1c0.2-5.6-3.5-11.9-11.8-11.9c-7.3,0-11.5,5.9-12,12.9H451.1z"/>
	<path d="M473.5,931.6L461.9,892h6.1l8.5,30.9l10.2-30.9h5.2l10.2,30.8l8.5-30.8h6.2l-11.6,39.6h-5.4l-10.4-31.6l-10.4,31.6H473.5z"
		/>
	<path d="M556.4,913.5h-28.9c0.2,8.4,4.9,13.5,12.6,13.5c4.3,0.2,8.5-1.6,11.3-5l4.1,3.6c-4.5,4.6-9,6.7-15.4,6.7
		c-12.1,0-18.3-9-18.3-20.2s6-20.7,17.7-20.7c12.1,0,17.2,9.4,17.2,18.6C556.7,911.1,556.6,912.3,556.4,913.5z M551.1,909.1
		c0.1-0.3,0.1-0.6,0.1-1c0.2-5.6-3.5-11.9-11.8-11.9c-7.3,0-11.5,5.9-12,12.9H551.1z"/>
	<path d="M565.7,923.2v-47.5h5.8v46.8c0,3.4,1.1,4.8,3.8,4.8c1.2,0,2.4-0.3,3.5-0.7l0.2,4.6c-1.8,0.7-3.6,1.1-5.5,1.1
		C568.7,932.3,565.7,929.4,565.7,923.2z"/>
	<path d="M612.1,893.1l-2.8,5.2c-1.5-0.7-3.2-1.1-4.9-1.1c-5.2,0-10.8,3.6-10.8,13.1v21.4h-5.8V892h5.8v8.5
		c1.6-5.4,6.5-9.1,12.1-9.2C607.9,891.4,610.1,892,612.1,893.1z"/>
	<path d="M625.9,948l6.6-16.9l-16.6-39h6.3l13.5,32.3l11.9-32.3h6.3l-21.7,56H625.9z"/>
	<path d="M711.4,928.9l-3.8,3.3l-6.7-7.8c-4.2,4.1-9.5,6.1-15.9,6.1c-9.4,0-16-4.6-16-12.6s6.3-12.1,12.7-15.5
		c-2-2.3-6.9-7.3-6.9-12.7c0-7.2,6.3-11.9,13.5-11.9c7,0,12.7,5.1,12.7,12c0,6.7-5.5,10.4-11.5,13.8l11.5,13.4
		c2.4-4.1,3.9-8.6,4.6-13.3l4.7,0.7c-1.3,6.7-3.3,12.2-6.1,16.3L711.4,928.9z M697.8,920.8L685,905.9c-5.8,3.2-10.9,6.5-10.9,12.1
		c0,5.1,4.2,7.9,10.5,7.9C689.5,926.1,694.3,924.2,697.8,920.8L697.8,920.8z M686,900.3c5.4-2.9,10.1-5.7,10.1-10.6
		c0.1-4.1-3.2-7.5-7.3-7.6c-0.1,0-0.3,0-0.4,0c-4.9,0-8.4,3.1-8.4,7.5C679.9,893.5,684.3,898.2,686,900.3L686,900.3z"/>
	<path d="M728.7,903.5c0-18,9.7-28.8,25.9-28.8c11.5,0,19.4,5.4,23.2,15.5l-5.5,2.1c-3-8-8.9-11.8-17.7-11.8
		c-12.9,0-19.9,8.2-19.9,23c0,14.9,7.1,23.3,19.6,23.3c8.7,0,14.9-4,18.1-12l5.5,2.1c-4.2,10.4-12.4,15.7-23.6,15.7
		C738.4,932.5,728.7,921.6,728.7,903.5z"/>
	<path d="M809.8,893.1l-2.8,5.2c-1.5-0.7-3.2-1.1-4.9-1.1c-5.2,0-10.8,3.6-10.8,13.1v21.4h-5.8V892h5.8v8.5
		c1.6-5.4,6.5-9.1,12.1-9.2C805.7,891.4,807.9,892,809.8,893.1z"/>
	<path d="M846.2,907v24.7h-5.3l-0.4-8.4c-2.4,5.6-8,9.1-14.1,9c-8.2,0-13.7-4.9-13.7-12.3c-0.2-3.8,1.8-7.3,5.1-9.2
		c2.7-1.5,6.5-2.3,11.2-2.3h11.5V907c0-6.8-3.6-10.5-10.6-10.5c-4.7,0-8.3,1.6-11.9,6l-4.2-3.5c4-5,10-7.8,16.4-7.5
		C840.5,891.4,846.2,897,846.2,907z M840.5,914.7v-1.8h-10.8c-3.5,0-6.3,0.6-8.2,1.7c-1.9,1.1-3.1,3.2-3,5.5c0,4.5,3.5,7.5,8.8,7.5
		C834.7,927.5,840.5,922.1,840.5,914.7z"/>
	<path d="M859.7,931.6v-35h-8.4V892h8.4v-5.5c0-8.5,4.5-11.6,10.7-11.6c2.3,0,4.7,0.5,6.7,1.6l-1.8,4.3c-1.3-0.7-2.8-1-4.3-1
		c-3.7,0-5.5,2.3-5.5,6.7v5.5h11.2v4.6h-11.2v35L859.7,931.6z"/>
	<path d="M903.1,931.1c-2,0.7-4.1,1.1-6.2,1.1c-5.3,0-9.3-2.8-9.3-10.2v-25.5h-6.5V892h6.5v-11l5.8-4v15h9.6v4.6h-9.6v25
		c0,3.4,0.9,5.9,4.9,5.9c1.6,0,3.2-0.3,4.7-0.9L903.1,931.1z"/>
</g>
</svg>
